<svg width="20747" height="8592" viewBox="0 0 20747 8592" fill="none" xmlns="http://www.w3.org/2000/svg">

  <path
    d="M2577 8553.9C1818.14 8549.42 248.017 8055.6 38.4883 6116.12V2429.22C96.6907 1683.79 685.877 162.02 2577.01 38.4524C3376.17 40.6909 5020.16 521.979 5202.83 2429.22V6116.12C5254.31 6888.42 5840.81 8457.19 7774.92 8553.9C8560.65 8547.18 10179.1 8050.23 10367.2 6116.12V2429.22C10443.3 1641.25 11080.4 61.2855 13019.8 45.168C13733.9 31.7367 15238.7 489.744 15544.9 2429.22V6116.12C15603.1 6897.37 16201.7 8477.34 18130.5 8547.18C18907.2 8544.95 20510.5 8055.6 20709.3 6116.12V2429.22C20646.6 1652.45 20036.4 88.1482 18096.9 45.168"
    stroke="black" stroke-width="75" stroke-linecap="round" />
</svg>